<svg version="1.1" xmlns="http://www.w3.org/2000/svg" xmlns:xlink="http://www.w3.org/1999/xlink" width="300" height="300" viewBox="233.20001,201.20001,300,300"><defs><clipPath id="clip-1"><rect x="233.20001" y="201.20001" width="300" height="300" id="clip-1" fill="none"/></clipPath><clipPath id="clip-2"><rect x="1592.0263" y="1373.56644" transform="scale(0.14648,0.14648)" width="2048" height="2048" id="clip-2" fill="none"/></clipPath><linearGradient x1="383.13316" y1="213.29593" x2="383.13316" y2="488.98307" gradientUnits="userSpaceOnUse" id="color-1"><stop offset="0" stop-color="#03a9f4"/><stop offset="1" stop-color="#02638f"/></linearGradient><linearGradient x1="383.10269" y1="314.55372" x2="383.10269" y2="464.78693" gradientUnits="userSpaceOnUse" id="color-2"><stop offset="0" stop-color="#304e71"/><stop offset="1" stop-color="#121d29"/></linearGradient></defs><g fill="none" fill-rule="nonzero" stroke="none" stroke-width="1" stroke-linecap="butt" stroke-linejoin="miter" stroke-miterlimit="10" stroke-dasharray="" stroke-dashoffset="0" font-family="none" font-weight="none" font-size="none" text-anchor="none" style="mix-blend-mode: normal"><g><g clip-path="url(#clip-1)" id="Group 1"><g id="Group 1"><g clip-path="url(#clip-2)" id="Group 1"><path d="M382.99493,213.29594c0.04395,0.03882 0.08936,0.07412 0.13037,0.11647c1.39746,1.48893 3.54785,5.23008 4.76807,7.07944c4.50439,6.84814 8.94434,13.73745 13.32129,20.66733c22.02832,34.84585 72.98291,117.92168 73.11035,157.11504c-0.01611,24.07031 -9.63574,47.14014 -26.72754,64.08984c-16.93213,17.00977 -39.93604,26.58398 -63.93604,26.61182c-18.4103,0.23291 -36.44648,-5.19873 -51.66519,-15.56104c-19.80103,-13.41064 -33.54844,-34.05615 -38.28604,-57.49805c-1.78491,-9.01318 -2.45596,-18.73682 -0.89355,-27.82031c2.20605,-12.82471 6.98496,-25.36377 12.06138,-37.29785c4.41475,-10.40786 9.23203,-20.64097 14.44087,-30.67573c19.24307,-36.75366 40.50088,-72.41704 63.67603,-106.82697z" id="Path 1" fill="url(#color-1)"/><path d="M383.07989,314.55372c1.36084,1.73555 2.52539,3.7251 3.73096,5.57505c2.4126,3.69785 4.78857,7.41885 7.12939,11.1624c11.68652,18.61685 38.26611,62.12124 38.81543,83.11392c0.30469,12.9917 -4.58789,25.56885 -13.59082,34.94092c-9.74561,10.16162 -22.06494,15.1377 -36.02783,15.44092c-10.14814,-0.16699 -19.55508,-2.8374 -27.99888,-8.56348c-10.85156,-7.37695 -18.33794,-18.75146 -20.81924,-31.63623c-0.94263,-4.93066 -1.24307,-10.35352 -0.33999,-15.30469c3.24741,-17.80078 17.85059,-43.76514 27.15923,-59.68359c6.93398,-11.91489 14.25176,-23.60303 21.94175,-35.04521z" id="Path 1" fill="url(#color-2)"/></g></g></g></g></g></svg>
